<svg width="193" height="211" viewBox="0 0 193 211" fill="none" xmlns="http://www.w3.org/2000/svg">
<path fill-rule="evenodd" clip-rule="evenodd" d="M84.119 1.39041C81.8399 2.23951 65.617 11.2311 48.068 21.3721C13.6737 41.2482 9.88377 44.0649 4.7927 53.543C0.188119 62.1155 0 64.1497 0 105.43C0 147.337 0.183149 149.174 5.21454 157.812C10.7026 167.232 14.708 170.185 47.8252 189.229C64.7393 198.956 80.3847 207.73 82.5916 208.726C85.5511 210.062 88.7369 210.63 94.7214 210.891C105.743 211.37 108.58 210.54 121.921 202.931C123.568 201.992 125.806 200.721 126.894 200.106C127.982 199.492 129.431 198.573 130.115 198.065C130.799 197.558 133.409 196.023 135.916 194.653C142.326 191.154 146.088 188.991 149.744 186.706C151.483 185.618 153.465 184.484 154.149 184.184C154.833 183.883 156.884 182.714 158.707 181.585C160.531 180.455 162.955 179.012 164.094 178.376C165.234 177.742 167.658 176.351 169.481 175.287C171.304 174.222 173.86 172.805 175.161 172.137C179.802 169.751 186.555 161.973 189.673 155.423L192.686 149.09L192.916 106.751C193.163 61.0993 193.151 60.9388 188.697 53.094C184.783 46.2014 177.248 39.0876 170.724 36.1253C170.041 35.8151 167.989 34.62 166.166 33.4699C164.343 32.3197 162.292 31.1247 161.608 30.8145C160.924 30.5034 157.568 28.5865 154.149 26.554C150.731 24.5207 146.722 22.163 145.24 21.3147C143.758 20.4656 141.241 19.0227 139.646 18.1079C138.051 17.1931 135.347 15.6596 133.637 14.6991C131.928 13.7393 129.224 12.1493 127.629 11.1663C122.534 8.02602 119.899 6.5665 113.54 3.36138C107.542 0.337554 106.99 0.22113 97.7935 0.0373384C90.2096 -0.113187 87.4167 0.162914 84.119 1.39041ZM87.4341 3.85869C83.0881 5.11114 42.3662 27.932 21.0314 41.071C12.4679 46.3452 7.04446 53.6553 4.44133 63.432C2.82193 69.5154 2.84761 141.432 4.47115 147.552C7.6917 159.689 13.3994 165.645 31.952 176.232C39.676 180.638 53.1417 188.381 61.8751 193.436C83.122 205.734 85.1301 206.698 91.8298 207.808C100.013 209.163 107.596 207.369 117.356 201.764C170.245 171.397 175.375 168.274 179.841 163.719C182.348 161.162 185.518 156.825 186.885 154.08L189.371 149.09V105.43V61.7687L186.611 56.2508C182.348 47.7283 177.743 43.6948 161.92 34.6225C154.227 30.2124 139.512 21.7247 129.218 15.7619C105.354 1.93679 99.6955 0.325079 87.4341 3.85869ZM85.3622 7.61436C78.9426 10.0885 20.1977 44.9173 16.7368 48.3004C14.7585 50.2348 11.6988 54.7306 9.87052 58.389L6.57205 64.9888L6.80825 106.208L7.04445 147.427L9.65089 152.417C13.3372 159.476 18.3404 164.817 24.7343 168.521C27.7676 170.279 41.4379 178.203 55.1125 186.132C68.787 194.06 82.0264 201.404 84.5334 202.451C90.1085 204.779 102.1 205.143 107.716 203.154C109.642 202.473 125.259 193.772 142.421 183.819C176.67 163.957 178.743 162.383 183.578 152.565L186.517 146.595L186.287 104.598L186.056 62.6004L183.623 57.6971C179.108 48.599 175.466 45.8629 142.942 27.137C126.543 17.6946 111.82 9.28843 110.225 8.45597C106.438 6.48084 89.7679 5.91616 85.3622 7.61436ZM41.6286 76.734C39.2268 77.4084 36.2433 78.4954 34.9985 79.1491C23.3901 85.2516 17.1876 100.626 21.1872 113.385C25.1006 125.871 38.3906 134.883 50.7424 133.427C55.2724 132.892 64.9598 128.541 69.0406 125.208L71.3661 123.309L68.5549 117.897C67.0085 114.92 65.5739 111.974 65.3667 111.349C65.094 110.53 63.4423 111.254 59.4402 113.947C52.0626 118.912 47.8186 120.08 41.6659 118.84C39.071 118.318 36.5856 117.526 36.1414 117.08C35.6209 116.558 36.3436 116.56 38.1735 117.087C42.4126 118.307 42.6438 118.115 39.8144 115.726C36.2773 112.739 34.6164 109.184 34.6164 104.598C34.6164 100.502 36.1223 96.7456 38.66 94.5085C41.2001 92.2698 45.3489 90.4601 47.9429 90.4601C50.8046 90.4601 57.6858 93.9305 63.5807 98.3473C67.6988 101.432 67.7519 101.53 68.1754 106.82C69.0182 117.364 75.4361 126.481 85.2627 131.092C88.9905 132.842 91.1651 133.279 96.1534 133.283C101.521 133.288 103.149 132.913 107.874 130.578C110.892 129.087 114.714 126.365 116.368 124.529L119.374 121.191L124.39 124.609C127.149 126.489 131.81 129.156 134.747 130.535C139.596 132.812 140.716 133.016 146.911 132.742C151.925 132.521 154.779 131.927 157.671 130.504C163.161 127.803 168.778 122.043 171.403 116.424C173.267 112.434 173.625 110.528 173.625 104.598C173.625 98.6983 173.264 96.7564 171.441 92.8552C168.369 86.2812 163.987 81.772 157.599 78.6176C152.88 76.2857 151.24 75.9065 145.879 75.9065C138.987 75.9065 134.19 77.6771 125.621 83.3854L121.111 86.3893L123.057 90.2955C124.128 92.4444 125.264 95.6063 125.58 97.3211C125.897 99.0368 126.286 100.44 126.446 100.44C126.605 100.44 129.723 98.3989 133.374 95.9048C142.923 89.379 148.976 88.2779 156.221 91.7475C158.688 92.9292 157.572 92.871 153.113 91.5862C151.584 91.1454 151.738 91.4622 153.972 93.3484C157.66 96.4629 159.122 99.589 159.122 104.362C159.122 109.238 157.007 113.508 153.351 116.013C147.06 120.322 141.658 119.173 131.028 111.263L124.566 106.456L124.092 101.847C122.81 89.3823 114.228 79.732 101.659 76.6192C96.5264 75.3485 95.7399 75.3493 90.5419 76.6317C84.8906 78.0255 77.2569 82.4931 74.9985 85.7281C73.8714 87.3432 73.7148 87.2999 68.6221 83.9759C57.1247 76.4729 49.6758 74.4744 41.6286 76.734ZM90.3306 92.3554C85.0331 95.1597 82.7184 99.4168 83.1021 105.648C83.4171 110.758 84.9196 113.55 88.9963 116.605C92.2052 119.009 100.067 119.009 103.276 116.605C107.791 113.222 108.982 110.747 108.982 104.745C108.982 96.4304 105.501 92.2889 97.375 90.9358C94.7586 90.5 93.2677 90.8003 90.3306 92.3554Z" fill="white"/>
</svg>
