<svg width="725" height="369" viewBox="0 0 725 369" fill="none" xmlns="http://www.w3.org/2000/svg">
<path d="M685.019 297.469C690.796 291.418 697.122 283.991 701.936 279.177C706.75 274.226 708.813 275.601 704.137 281.79C699.598 287.842 693.821 292.656 688.595 297.745C687.22 299.12 685.432 300.22 683.919 301.321C683.231 301.733 682.268 302.283 681.306 302.558C677.867 303.521 675.666 301.596 675.391 298.157C675.254 296.782 675.391 295.269 675.804 293.894C677.179 286.742 680.343 280.415 683.644 274.088C684.194 272.85 684.882 271.612 685.569 270.65C686.532 268.999 687.495 267.486 685.982 265.973C686.257 265.423 686.532 265.011 686.669 264.873C690.108 263.36 691.621 260.059 693.684 257.309C698.91 249.882 704.137 242.18 710.463 235.715C711.564 234.615 712.802 233.515 714.039 232.552C714.59 231.864 715.552 231.314 716.515 230.901C717.753 230.351 719.128 229.939 720.366 230.901C721.604 232.002 721.604 233.515 720.916 234.753C719.954 236.816 718.991 238.741 717.753 240.529C711.839 248.231 704.962 254.833 697.672 261.16C695.472 263.223 693.409 265.286 691.621 267.899C687.907 274.501 684.331 280.965 681.581 287.842C680.893 290.18 680.205 292.656 679.655 294.994C678.005 301.321 682.956 299.257 685.019 297.469ZM714.177 237.916C710.876 241.079 698.223 254.971 697.397 258.959C701.799 254.695 724.355 230.901 714.177 237.916Z" fill="white"/>
<path d="M684.102 278.902C679.976 282.753 665.534 289.355 665.534 279.865C665.534 278.352 665.809 276.839 666.084 275.051C661.408 277.939 657.007 280.965 652.193 283.441C651.093 284.266 649.58 284.403 648.342 284.541C646.554 284.816 644.904 284.266 644.079 282.753C643.116 281.103 643.528 279.59 644.491 278.214C645.316 277.114 646.004 276.289 647.104 275.326C651.918 271.2 657.557 268.999 664.159 269.549C665.122 269.687 666.222 269.412 667.047 268.449C668.285 267.211 669.523 265.836 670.761 264.598C671.173 264.048 671.724 263.36 672.274 263.223C672.824 263.085 673.787 263.085 674.337 263.36C674.749 263.91 675.024 264.598 674.887 265.423C674.749 266.386 674.337 267.211 673.787 268.174C672.686 270.512 665.534 283.716 673.924 281.24C676.125 280.69 678.738 279.039 681.351 277.802C682.039 277.527 682.864 276.839 683.689 276.976C684.652 277.251 685.34 278.352 684.102 278.902ZM647.93 280.552C653.294 279.59 659.758 275.876 663.471 272.3C657.97 272.713 651.093 275.876 647.93 280.552Z" fill="white"/>
<path d="M622.24 247.131C617.976 247.681 617.564 245.755 617.839 245.205C618.389 244.38 619.352 243.28 623.203 243.555C629.254 244.105 635.994 244.105 642.32 243.28C642.595 243.142 642.871 242.867 643.008 242.592C648.097 235.44 647.272 235.853 652.498 228.976C653.048 227.876 654.424 226.638 655.524 227.6C655.937 227.876 656.074 229.113 656.074 229.801C655.937 230.489 655.111 231.314 654.836 231.864C650.71 237.503 652.636 235.578 647.272 243.417C655.111 244.793 672.854 244.518 686.745 243.005C691.146 242.592 695.135 242.179 697.748 242.317C702.287 242.592 701.599 244.655 697.748 245.48C687.708 247.268 653.598 246.993 644.934 246.718C638.607 254.695 631.042 266.661 627.054 274.226C623.753 280.69 619.214 291.555 628.154 287.842C632.143 286.329 638.882 281.79 643.146 278.214C643.971 277.664 644.521 276.976 645.346 276.564C646.446 275.876 647.272 275.326 648.097 276.426C648.785 277.526 648.234 278.627 647.272 279.452C644.934 281.515 635.581 288.254 628.429 290.73C616.051 294.994 619.902 281.928 622.515 275.876C626.779 265.698 635.031 254.97 640.12 246.856C634.068 246.993 627.329 247.131 622.24 247.131Z" fill="white"/>
<path d="M603.201 286.466C608.015 284.678 614.892 280.827 619.705 278.352C625.482 275.739 626.857 279.314 621.493 281.79C615.854 284.403 609.94 286.879 604.164 289.217C602.238 290.042 600.313 290.18 598.525 289.492C596.874 288.667 596.187 287.154 596.599 284.816C597.012 283.028 597.837 281.79 598.25 280.14C599.9 276.151 601.413 273.125 595.636 275.051C592.611 276.701 589.447 278.489 586.559 280.277C583.808 282.203 581.195 284.266 578.307 286.329C577.894 286.741 577.482 287.292 576.794 287.567C575.969 287.979 574.868 288.667 573.768 287.567C572.805 286.604 573.08 285.504 573.768 284.678C575.281 282.478 576.656 280.277 578.032 278.077C579.82 275.739 581.47 273.263 583.12 270.787C583.533 270.237 583.808 269.824 584.083 269.137C585.459 267.349 586.697 266.524 587.522 267.349C588.347 267.899 588.072 269.137 586.696 271.337C585.459 273.263 584.358 275.326 582.983 277.114C582.02 278.489 575.694 285.091 580.232 281.24C584.221 277.939 588.897 274.776 593.436 272.575C597.287 270.65 602.926 268.862 603.476 274.913C603.889 277.802 601.826 280.14 600.588 282.89C599.35 286.329 599.487 287.979 603.201 286.466Z" fill="white"/>
<path d="M576.95 277.114C577.775 276.701 578.6 276.426 579.425 276.151C580.526 276.014 581.213 276.151 581.763 277.114C582.176 278.077 581.764 279.04 580.938 279.452C574.199 282.891 566.634 284.679 559.345 285.091C554.394 285.366 546.829 284.816 548.755 277.389C549.992 273.813 550.68 272.85 553.706 271.2C557.007 269.687 560.72 269.137 564.021 269.137C565.397 269.274 566.497 270.1 566.772 271.475C567.047 272.85 566.497 274.088 565.259 274.776C563.471 275.876 561.408 276.701 559.207 277.389C557.557 277.802 555.631 277.939 553.843 277.939C551.093 277.939 551.093 279.452 552.331 280.69C555.906 284.266 573.099 280.69 576.95 277.114ZM563.058 273.125C565.534 269.962 557.282 273.125 552.743 276.151C555.494 276.426 560.858 275.188 563.058 273.125Z" fill="white"/>
<path d="M429.902 315.212C414.91 321.538 397.855 329.791 392.079 325.94C392.079 325.665 391.941 325.527 391.941 325.252C388.64 321.263 412.984 317.687 431.69 309.71C433.202 309.023 434.303 308.335 435.403 306.684C450.257 283.853 464.836 261.022 479.69 238.053C480.24 237.228 480.653 236.265 481.34 235.028C478.59 235.028 476.389 234.752 474.051 235.028C461.81 236.128 450.532 237.503 438.979 240.116C438.016 240.391 436.641 241.492 435.678 239.704C435.403 238.604 436.366 236.128 438.429 235.715C452.595 231.039 467.174 231.176 481.753 231.176C483.403 231.176 484.229 230.489 485.191 229.251C486.567 226.913 487.805 224.712 489.455 222.787C490.28 221.549 491.106 220.724 492.206 219.898C492.481 219.486 493.444 219.486 493.581 219.898C493.994 220.174 494.131 221.136 493.994 221.686C493.856 222.512 493.444 223.199 492.894 223.749C491.518 226.225 490.28 228.563 488.63 231.176C493.169 231.589 497.295 231.864 501.558 232.552C511.048 234.065 520.676 235.715 529.616 239.154C533.467 240.529 537.043 242.317 540.069 245.343C544.332 249.469 545.02 254.695 542.132 260.059C540.069 263.91 536.905 266.799 533.742 269.274C526.865 274.776 519.438 279.177 511.736 282.753C500.733 287.979 489.73 292.793 478.452 297.469C465.661 302.558 452.87 306.822 440.079 311.636C437.604 312.461 436.091 313.699 434.715 315.762C432.652 319.063 430.314 323.326 427.976 326.49C417.798 338.455 427.288 320.438 429.902 315.212ZM441.592 305.584C441.73 305.859 441.73 305.997 441.867 306.134C442.555 305.997 442.968 305.859 443.38 305.584C446.956 304.484 450.67 303.108 454.383 301.871C471.988 295.269 489.318 288.667 506.372 280.552C515.175 276.426 523.564 271.75 531.266 265.423C533.605 263.498 535.805 261.297 537.593 258.684C540.894 254.558 540.206 250.432 535.943 247.543C533.329 245.755 530.304 244.243 527.278 243.005C514.624 238.741 501.696 236.403 488.355 235.44C486.567 235.303 485.467 235.853 484.779 237.366C480.79 244.243 476.527 250.982 472.401 257.446C463.186 272.025 453.558 286.742 444.205 301.183C443.243 302.696 442.555 304.071 441.592 305.584Z" fill="white"/>
<path fill-rule="evenodd" clip-rule="evenodd" d="M54.8029 1.07629C51.2286 1.81427 48.0368 2.68586 47.7091 3.01429C47.3813 3.34273 46.6168 3.61072 46.009 3.61072C44.8037 3.61072 37.6797 6.69069 37.0369 7.48991C36.8181 7.76188 35.3861 8.6796 33.8547 9.52891C32.3233 10.3782 30.1323 11.9886 28.986 13.1075C27.8396 14.2264 26.0496 15.8893 25.0082 16.8022C22.258 19.2142 20.0608 21.9506 16.8595 26.9543C-2.2614 56.8339 -5.15002 108.738 8.35672 179.757C9.56356 186.106 13.2207 201.955 15.0536 208.783C17.7791 218.937 18.8507 222.834 19.5373 225.086C21.4585 231.385 22.9812 236.52 23.8292 239.561C24.3424 241.398 25.0178 243.157 25.3304 243.47C25.6431 243.783 25.9016 244.606 25.904 245.298C25.9072 245.991 26.4442 247.582 27.0973 248.835C27.7513 250.088 28.2859 251.568 28.2859 252.124C28.2859 252.68 28.8205 254.16 29.4744 255.413C30.1276 256.665 30.6646 258.495 30.6677 259.48C30.6701 260.464 30.9987 261.269 31.3981 261.269C31.7974 261.269 32.3654 262.701 32.6614 264.45C32.9573 266.2 33.5253 267.631 33.9247 267.631C34.3241 267.631 34.6502 268.203 34.6502 268.903C34.6502 269.602 35.1451 271.302 35.7505 272.68C36.3551 274.058 38.1928 278.407 39.834 282.343C44.433 293.375 50.4983 306.549 51.367 307.393C51.5921 307.612 52.752 309.759 53.9453 312.165C55.1387 314.57 57.5627 319.043 59.3312 322.105C61.0997 325.167 62.9501 328.477 63.4433 329.461C63.9374 330.446 64.6414 331.25 65.009 331.25C65.3757 331.25 65.6764 331.623 65.6764 332.079C65.6764 332.535 66.0448 333.34 66.4942 333.868C66.9445 334.396 69.4831 337.83 72.1355 341.499C78.316 350.047 86.3001 357.903 92.7838 361.816C97.7297 364.802 98.141 364.904 105.454 364.975C109.61 365.016 113.964 364.781 115.128 364.454C117.685 363.737 122.956 358.792 122.956 357.11C122.956 356.446 123.24 355.903 123.587 355.903C124.637 355.903 126.82 347.722 128.088 339.038C128.745 334.536 129.992 317.97 130.859 302.224C132.329 275.548 133.394 265.386 135.655 256.498C139.893 239.83 148.166 227.586 158.878 222.121C167.895 217.522 169.971 217.132 185.306 217.154L199.526 217.174L194.853 215.028C192.282 213.847 189.446 212.854 188.548 212.821C187.652 212.786 186.47 212.312 185.924 211.765C184.237 210.079 163.286 210.424 158.357 212.221C146.44 216.565 134.419 225.435 128.524 234.235C127.868 235.215 126.968 236.419 126.525 236.913C120.917 243.153 116.368 260.84 114.227 284.729C111.347 316.878 108.501 323.886 99.5292 320.927C97.9747 320.414 96.7026 319.664 96.7026 319.26C96.7026 318.856 96.1656 318.526 95.5093 318.526C94.853 318.526 94.316 318.254 94.316 317.922C94.316 317.59 93.5109 316.418 92.526 315.32C89.7472 312.219 86.0543 306.697 82.97 301.031C76.2866 288.754 71.2413 278.431 66.8411 268.029C66.2866 266.716 64.9286 263.663 63.8244 261.244C62.7194 258.824 61.5706 255.868 61.2715 254.675C60.9716 253.482 60.4083 252.31 60.0193 252.07C59.6303 251.829 59.3121 251.081 59.3121 250.408C59.3121 249.734 58.7449 247.876 58.0527 246.28C57.3598 244.683 56.2858 242.201 55.6661 240.765C55.0456 239.328 54.5388 237.471 54.5388 236.636C54.5388 235.802 54.2087 234.916 53.8045 234.667C53.4004 234.417 52.8181 233.065 52.5102 231.663C52.2023 230.261 51.6812 228.566 51.3535 227.895C51.0257 227.225 49.6152 222.919 48.219 218.326C46.8228 213.733 45.1904 208.366 44.5921 206.397C43.9939 204.429 42.7258 199.598 41.7743 195.662C37.6375 178.551 37.258 176.633 35.4871 163.852C35.0027 160.353 34.2151 155.88 33.7361 153.911C32.4935 148.796 31.9223 106.618 32.9764 97.8469C34.2238 87.4706 35.3471 80.7802 36.3766 77.5873C38.9772 69.522 39.7107 67.4138 40.7139 65.1219C41.3169 63.7437 41.8101 62.4141 41.8101 62.1676C41.8101 61.921 43.4028 59.1122 45.3487 55.9257C51.6955 45.5343 59.4378 39.0149 69.2492 35.7989C72.97 34.579 76.0257 34.257 83.184 34.3317C91.9676 34.4224 93.4974 34.6872 105.454 38.1839C107.423 38.7596 111.182 39.8324 113.807 40.5672C116.432 41.3028 119.296 42.1839 120.171 42.5267C121.046 42.8694 123.91 43.7728 126.536 44.5339C129.161 45.2941 131.891 46.215 132.603 46.5784C133.315 46.9427 135.284 47.4953 136.979 47.8071C138.673 48.1188 140.239 48.6135 140.458 48.9061C141.067 49.7212 149.535 51.3403 158.158 52.2891C168.906 53.4724 178.512 52.406 195.35 48.1602C197.319 47.6639 199.27 46.9204 199.686 46.5085C200.101 46.0957 201.074 45.7585 201.846 45.7585C203.753 45.7585 208.874 43.2591 208.874 42.3287C208.874 41.8984 207.506 41.7974 205.662 42.0925C201.687 42.7279 180.912 41.1533 179.877 40.1378C179.461 39.7298 178.305 39.3966 177.308 39.3966C174.115 39.3966 150.687 30.8295 149.208 29.1205C148.99 28.8676 147.379 27.9507 145.629 27.0831C143.878 26.2147 139.403 23.6961 135.684 21.4854C131.965 19.2738 126.953 16.5167 124.547 15.358C116.023 11.2538 109.306 8.38217 108.229 8.38217C107.629 8.38217 106.942 8.06487 106.703 7.67679C106.463 7.28951 104.921 6.72012 103.275 6.41315C101.629 6.1054 99.9246 5.56941 99.487 5.22188C99.0495 4.87436 96.9015 4.16501 94.7138 3.64651C79.0718 -0.0640886 64.7814 -0.984184 54.8029 1.07629Z" fill="white"/>
<path d="M689.365 129.58C690.072 126.637 691.425 124.459 693.427 123.047C695.546 121.516 697.9 120.634 700.49 120.398C703.197 120.163 706.022 120.516 708.965 121.458C711.908 122.282 714.557 123.576 716.911 125.342C718.089 126.284 719.03 127.638 719.737 129.404C720.443 131.052 720.796 132.7 720.796 134.348C720.796 138.232 720.561 142.176 720.09 146.178C719.737 150.063 719.325 154.007 718.854 158.009C718.265 162.835 717.618 167.603 716.911 172.312C716.323 177.02 715.852 181.847 715.499 186.791C714.91 192.324 712.203 195.325 707.376 195.796C705.14 196.032 702.903 196.091 700.666 195.973C698.547 195.855 696.37 195.62 694.133 195.267C691.543 194.796 689.601 193.677 688.306 191.912C687.129 190.146 686.481 188.027 686.364 185.555C685.54 176.373 685.304 167.014 685.657 157.479C686.128 147.826 687.364 138.527 689.365 129.58ZM696.075 87.0251C695.958 82.081 696.605 78.7849 698.018 77.1368C699.548 75.4888 702.726 74.547 707.553 74.3116C708.965 74.1939 710.319 74.135 711.614 74.135C713.027 74.135 714.439 74.2527 715.852 74.4882C719.737 75.0768 722.268 76.2539 723.445 78.0197C724.622 79.6678 724.857 82.4341 724.151 86.3188C723.916 87.2606 723.739 88.1434 723.621 88.9675C723.621 89.6738 723.504 90.4978 723.268 91.4395C722.68 94.0293 721.679 96.3248 720.266 98.326C718.854 100.21 717.147 101.681 715.146 102.74C713.144 103.682 710.967 104.153 708.612 104.153C706.258 104.153 703.845 103.506 701.373 102.211C700.195 101.622 699.136 100.68 698.194 99.3855C697.37 97.9729 696.723 96.6191 696.252 95.3242C695.781 94.0293 695.604 92.6756 695.722 91.263C695.958 89.8503 696.075 88.4377 696.075 87.0251Z" fill="white"/>
<path d="M575.026 155.184C576.203 153.536 577.263 152.064 578.204 150.769C579.146 149.357 580.088 147.944 581.03 146.531C585.15 140.292 589.623 134.348 594.45 128.697C599.276 123.047 604.573 117.926 610.341 113.335C614.815 109.686 619.582 107.214 624.644 105.919C629.706 104.624 635.062 104.742 640.713 106.272C648.6 108.391 654.309 113.453 657.841 121.458C660.077 126.284 661.902 131.699 663.314 137.703C664.845 143.706 666.022 149.828 666.846 156.067C667.788 162.188 668.435 168.192 668.788 174.077C669.259 179.846 669.612 184.907 669.848 189.263C670.083 193.619 669.436 196.856 667.905 198.975C666.375 200.976 663.609 202.094 659.606 202.33C657.017 202.565 654.721 202.565 652.72 202.33C650.719 202.094 648.953 201.447 647.423 200.387C646.01 199.328 644.774 197.739 643.714 195.62C642.773 193.501 642.008 190.676 641.419 187.144C640.124 178.668 638.888 170.31 637.711 162.07C636.651 153.83 635.062 145.354 632.943 136.643C632.355 134.171 631.648 132.052 630.824 130.286C630 128.403 628.882 127.167 627.469 126.578C626.175 125.99 624.585 126.166 622.702 127.108C620.936 128.05 618.817 129.992 616.345 132.935C610.341 139.88 605.044 147.297 600.453 155.184C595.862 162.953 592.036 171.37 588.976 180.434C587.328 185.025 585.091 188.321 582.266 190.322C579.441 192.324 576.086 193.383 572.201 193.501C568.316 193.736 564.843 192.912 561.783 191.029C558.84 189.145 556.544 185.967 554.896 181.494C554.425 180.434 553.837 178.139 553.131 174.607C552.542 171.076 551.777 167.25 550.835 163.13C550.011 158.892 548.952 154.831 547.657 150.946C546.362 146.943 544.89 143.942 543.242 141.94C541.594 139.822 539.652 139.233 537.415 140.175C535.296 140.999 532.883 144.118 530.176 149.533C528.763 152.359 527.527 155.419 526.468 158.715C525.408 162.011 524.407 165.425 523.466 168.957C522.524 172.488 521.582 176.079 520.641 179.728C519.816 183.259 518.816 186.791 517.639 190.322C516.579 193.619 515.167 196.032 513.401 197.562C511.753 199.092 509.457 199.975 506.514 200.211C505.102 200.329 503.63 200.446 502.1 200.564C500.57 200.564 498.98 200.446 497.332 200.211C493.919 199.74 491.27 198.622 489.386 196.856C487.621 194.972 486.443 192.147 485.855 188.38C485.031 183.318 484.325 178.256 483.736 173.195C483.265 168.133 482.971 163.071 482.853 158.009C482.264 147.532 481.911 137.173 481.794 126.931C481.794 116.69 482.618 106.39 484.266 96.0305C485.325 88.732 488.033 83.7879 492.388 81.1981C496.744 78.4906 501.982 78.5495 508.104 81.3747C511.635 83.0227 513.577 85.7891 513.931 89.6738C514.284 94.9711 514.637 100.21 514.99 105.389C515.343 110.569 515.637 115.807 515.873 121.104C515.991 122.635 515.991 124.224 515.873 125.872C515.873 127.52 515.873 129.639 515.873 132.229C517.05 130.581 517.992 129.345 518.698 128.521C519.522 127.579 520.228 126.696 520.817 125.872C523.525 121.87 526.821 118.986 530.705 117.22C534.708 115.336 538.769 114.512 542.889 114.748C547.127 114.983 551.129 116.337 554.896 118.809C558.663 121.163 561.665 124.577 563.902 129.05C565.903 133.171 567.728 137.408 569.376 141.764C571.141 146.002 573.025 150.475 575.026 155.184Z" fill="white"/>
<path d="M434.994 54.535C435.112 53.0047 435.23 51.3566 435.348 49.5909C435.583 47.7074 435.936 45.9416 436.407 44.2936C436.878 42.5278 437.584 40.9386 438.526 39.526C439.468 38.1134 440.763 37.1128 442.411 36.5242C445.824 35.347 449.238 34.8173 452.652 34.935C456.184 34.935 459.597 35.759 462.893 37.4071C464.895 38.3488 466.248 39.8203 466.955 41.8215C467.661 43.705 468.073 45.6473 468.191 47.6485C468.308 54.3584 468.426 60.8918 468.544 67.2485C468.662 73.6053 468.603 80.0209 468.367 86.4954C467.896 103.211 467.367 119.751 466.778 136.113C466.307 152.358 465.778 168.721 465.189 185.202C464.954 190.264 463.953 193.972 462.187 196.326C460.421 198.563 457.478 199.975 453.358 200.564C448.296 201.153 443.882 200.329 440.115 198.092C436.466 195.738 434.288 192.324 433.582 187.85C432.875 184.907 432.405 182.023 432.169 179.198C431.934 176.255 431.757 173.312 431.639 170.369C431.522 160.363 431.522 150.534 431.639 140.881C431.757 131.228 431.934 121.693 432.169 112.276C432.522 102.74 432.934 93.2053 433.405 83.6702C433.876 74.135 434.406 64.4233 434.994 54.535Z" fill="white"/>
<path d="M383.977 129.58C384.684 126.637 386.037 124.459 388.039 123.047C390.158 121.516 392.512 120.634 395.102 120.398C397.809 120.163 400.634 120.516 403.577 121.458C406.52 122.282 409.169 123.576 411.523 125.342C412.701 126.284 413.642 127.638 414.349 129.404C415.055 131.052 415.408 132.7 415.408 134.348C415.408 138.232 415.173 142.176 414.702 146.178C414.349 150.063 413.937 154.007 413.466 158.009C412.877 162.835 412.23 167.603 411.523 172.312C410.935 177.02 410.464 181.847 410.111 186.791C409.522 192.324 406.815 195.325 401.988 195.796C399.752 196.032 397.515 196.091 395.278 195.973C393.159 195.855 390.982 195.62 388.745 195.267C386.155 194.796 384.213 193.677 382.918 191.912C381.741 190.146 381.093 188.027 380.976 185.555C380.152 176.373 379.916 167.014 380.269 157.479C380.74 147.826 381.976 138.527 383.977 129.58ZM390.687 87.0251C390.57 82.081 391.217 78.7849 392.63 77.1368C394.16 75.4888 397.338 74.547 402.165 74.3116C403.577 74.1939 404.931 74.135 406.226 74.135C407.639 74.135 409.051 74.2527 410.464 74.4882C414.349 75.0768 416.879 76.2539 418.057 78.0197C419.234 79.6678 419.469 82.4341 418.763 86.3188C418.528 87.2606 418.351 88.1434 418.233 88.9675C418.233 89.6738 418.116 90.4978 417.88 91.4395C417.292 94.0293 416.291 96.3248 414.878 98.326C413.466 100.21 411.759 101.681 409.758 102.74C407.756 103.682 405.579 104.153 403.224 104.153C400.87 104.153 398.457 103.506 395.985 102.211C394.807 101.622 393.748 100.68 392.806 99.3855C391.982 97.9729 391.335 96.6191 390.864 95.3242C390.393 94.0293 390.216 92.6756 390.334 91.263C390.57 89.8503 390.687 88.4377 390.687 87.0251Z" fill="white"/>
<path fill-rule="evenodd" clip-rule="evenodd" d="M295.589 23.9506C294.495 24.1375 290.915 24.6926 287.633 25.1832C281.9 26.0413 278.351 26.9097 269.733 29.5603C265.248 30.94 264.83 31.0998 256.703 34.5321C253.474 35.8952 250.342 37.0109 249.742 37.0109C249.142 37.0109 248.651 37.3298 248.651 37.7202C248.651 38.1099 247.671 38.6753 246.472 38.9759C245.273 39.2765 244.11 39.7624 243.886 40.0559C243.282 40.8495 237.087 44.1092 222.001 51.5733C204.613 60.1747 203.426 60.6964 193.759 63.9911C190.915 64.9604 187.872 66.0579 186.997 66.4309C185.148 67.2181 176.348 69.215 169.547 70.3904C166.952 70.8389 161.582 71.2142 157.614 71.2238L150.402 71.2413L152.391 72.7968C153.485 73.6524 154.71 74.3602 155.112 74.3698C155.516 74.3793 156.411 74.8596 157.101 75.437C157.792 76.0135 160.505 77.1372 163.131 77.934C165.756 78.7301 168.62 79.6692 169.495 80.0215C175.167 82.3023 199.019 80.7977 206.09 77.7122C206.965 77.3304 211.261 75.864 215.636 74.4532C220.012 73.0425 224.308 71.5641 225.183 71.1681C231.09 68.4937 251.157 61.727 259.789 59.4987C270.262 56.7957 285.481 56.1563 293.45 58.0848C308.908 61.8248 318.001 69.8249 324.183 85.123C324.536 85.9978 325.266 87.7871 325.806 89.0992C328.708 96.1634 330.288 116.087 329.158 131.366C328.154 144.933 327.015 155.374 326.289 157.663C326.012 158.534 325.448 161.535 325.036 164.332C324.277 169.485 322.949 176.476 320.673 187.312C319.984 190.592 319.099 194.925 318.708 196.94C318.316 198.956 317.617 201.997 317.156 203.7C316.693 205.403 315.553 209.837 314.621 213.555C311.228 227.094 311.322 226.767 305.638 244.715C305.128 246.326 304.448 247.907 304.127 248.227C303.806 248.548 303.544 249.323 303.544 249.95C303.544 250.575 303.055 252.216 302.459 253.594C301.862 254.972 300.739 257.71 299.964 259.679C299.189 261.647 298.066 264.385 297.469 265.763C296.873 267.141 296.384 268.662 296.384 269.143C296.384 269.624 296.026 270.017 295.589 270.017C295.151 270.017 294.793 270.488 294.793 271.062C294.793 272.896 285.295 290.839 280.614 297.848C270.493 313.002 258.357 321.753 251.013 319.194C247.877 318.101 245.469 316.181 245.469 314.771C245.469 314.212 245.2 313.755 244.873 313.755C243.726 313.755 240.641 301.772 239.14 291.488C237.714 281.72 236.725 275.976 235.99 273.198C235.585 271.667 234.628 268.088 233.865 265.245C232.096 258.664 226.896 247.495 223.685 243.38C220.556 239.37 215.441 234.595 212.852 233.266C211.758 232.705 210.684 232.038 210.465 231.784C209.686 230.88 204.87 228.785 202.319 228.239C200.893 227.935 199.368 227.4 198.93 227.052C197.38 225.82 182.619 224.886 175.724 225.584C167.166 226.452 160.063 229.718 155.522 234.875C152.456 238.357 148.602 245.023 149.269 245.689C149.454 245.875 151.706 244.088 154.272 241.719C156.839 239.35 159.229 237.412 159.586 237.412C159.941 237.412 160.706 236.962 161.284 236.413C161.862 235.863 164.483 234.343 167.108 233.033C171.502 230.842 172.546 230.652 180.235 230.656C187.997 230.66 188.866 230.822 192.516 232.952C198.111 236.217 203.379 242.046 206.394 248.31C207.825 251.282 209.281 254.263 209.629 254.933C209.978 255.604 210.533 257.381 210.863 258.883C211.193 260.386 211.75 262.163 212.101 262.833C214.284 267.008 217.519 291.052 217.582 303.571C217.633 313.664 219.764 338.132 220.79 340.396C221.186 341.27 221.745 343.239 222.031 344.769C222.734 348.533 227.36 358.088 230.022 361.276C231.212 362.701 234.01 365.016 236.242 366.421C240.028 368.804 240.781 368.977 247.537 369C251.518 369.013 255.635 368.627 256.686 368.141C257.736 367.654 260.009 366.642 261.737 365.891C271.512 361.642 282.554 351.246 289.904 339.374C291.451 336.874 292.923 334.65 293.176 334.431C294.713 333.102 307.923 308.299 310.753 301.429C311.114 300.554 312.277 297.87 313.338 295.464C315.503 290.558 318.215 283.93 320.011 279.162C320.67 277.412 321.485 275.432 321.822 274.762C322.159 274.092 322.687 272.396 322.995 270.994C323.303 269.592 323.885 268.24 324.289 267.99C324.693 267.742 325.026 266.753 325.028 265.795C325.032 264.837 325.569 263.027 326.222 261.775C326.876 260.522 327.41 258.894 327.41 258.156C327.41 257.419 327.724 256.475 328.11 256.06C328.494 255.644 329.586 252.621 330.538 249.34C331.489 246.06 332.607 242.755 333.021 241.996C333.436 241.236 333.775 240.114 333.775 239.502C333.775 238.89 334.339 236.469 335.03 234.123C335.721 231.777 336.828 227.889 337.491 225.483C338.152 223.078 338.999 220.036 339.37 218.724C339.743 217.411 340.789 213.117 341.696 209.181C342.603 205.244 343.676 200.592 344.081 198.843C344.761 195.908 345.747 191.084 348.111 179.12C353.535 151.667 356.133 116.702 354.533 92.6778C353.631 79.1484 353.331 76.9503 350.785 65.242C346.86 47.1963 341.467 38.3047 330.371 31.5818C324.824 28.2203 320.216 26.3976 314.163 25.1689C309.309 24.1836 298.407 23.4687 295.589 23.9506Z" fill="white"/>
</svg>
