<svg width="714" height="639" viewBox="0 0 714 639" fill="none" xmlns="http://www.w3.org/2000/svg">
<path d="M343.24 7.28461C347.125 -2.42824 360.875 -2.42819 364.761 7.28466L611.073 623.017C616.28 636.035 598.202 645.388 590.583 633.617L354 268.116L117.418 633.617C109.798 645.388 91.7199 636.035 96.9278 623.016L343.24 7.28461Z" fill="white"/>
<path d="M652.078 287.759L690.948 327.963C698.131 335.392 710.709 330.406 710.851 320.074L713.631 118.053C713.76 108.668 703.255 103.036 695.51 108.34L523.573 226.08C515.115 231.872 517.801 244.988 527.855 246.99L587.234 258.81C512.399 361.981 392.296 422.598 264.847 421.522L257.661 421.461C229.212 421.221 200.866 418.006 173.085 411.87L6.05928 374.976C1.34937 373.936 -1.09483 380.373 3.11862 382.721L110.224 442.403C188.192 485.849 277.489 504.665 366.358 496.373L395.233 493.679C434.831 489.984 473.29 478.409 508.349 459.634C571.5 425.815 620.372 370.4 646.032 303.517L652.078 287.759Z" fill="white"/>
</svg>
