<svg width="166" height="166" viewBox="0 0 166 166" fill="none" xmlns="http://www.w3.org/2000/svg">
<path d="M6.7489 0.8977C5.29538 1.67098 4.00011 2.71054 2.93051 3.96218C1.0772 6.11551 0.139503 8.90821 0.317786 11.7437C0.496068 14.5791 1.77618 17.2324 3.88462 19.1366C4.63858 19.84 9.71427 23.4116 15.0892 27.026C28.3554 35.9647 33.6312 40.7431 38.806 48.4828C45.1853 57.9128 48.7568 68.96 49.105 80.3398C49.7607 93.2996 46.1423 106.116 38.806 116.82C33.5302 124.81 30.6154 127.472 16.0938 137.371C1.01843 147.67 0.415992 148.274 0.114795 153.694C-0.187982 155.531 0.111965 157.418 0.96981 159.071C2.02919 161.285 3.79132 163.088 5.98171 164.196C8.17209 165.305 10.6678 165.659 13.0799 165.201C16.9488 164.346 18.8084 162.689 23.1845 156.057C34.1889 139.625 38.7613 133.997 45.1933 129.174C52.0755 123.971 59.9374 120.211 68.3077 118.12C72.6799 116.963 73.9857 116.864 82.6874 116.864C91.3891 116.864 92.6871 116.965 97.0671 118.12C107.998 120.727 117.986 126.33 125.91 134.299C129.076 137.408 131.889 141.133 138.121 150.528C147.82 165.05 148.321 165.503 154.3 165.503C157.668 165.503 158.42 165.308 160.229 164.096C161.564 163.154 162.735 162 163.696 160.68C164.966 158.512 165.506 155.994 165.234 153.496C164.963 150.998 163.895 148.654 162.188 146.811C161.585 146.259 155.705 142.087 149.124 137.616C135.91 128.57 131.988 124.954 127.014 117.366C120.008 107.236 116.369 95.1583 116.612 82.8446C116.357 70.8617 120.028 59.1242 127.064 49.4215C133.395 40.4827 145.455 29.8242 156.962 22.9414C162.089 19.9275 164.047 18.0173 165.153 15.2036C165.863 13.0562 165.942 10.7505 165.381 8.55962C164.82 6.36877 163.642 4.38469 161.988 2.8428C160.278 1.59292 158.276 0.802628 156.173 0.547463C154.071 0.292298 151.938 0.580791 149.979 1.3854C147.466 2.54161 146.059 4.24972 138.271 15.8565C131.487 25.9067 128.372 29.7757 123.547 33.9458C114.912 41.5634 104.307 46.5958 92.9456 48.4673C84.7136 49.6166 76.343 49.2936 68.2241 47.5133C57.722 44.7678 48.1018 39.3692 40.2867 31.8355C35.5627 27.2631 34.1053 25.3024 25.7126 12.4403C23.6784 9.17141 21.4643 6.01787 19.0805 2.99438C17.4319 1.51754 15.3994 0.537035 13.2174 0.166033C11.0354 -0.204968 8.7929 0.048705 6.7489 0.8977Z" fill="white"/>
</svg>
